<?xml version="1.0" encoding="UTF-8" standalone="no"?>
<!-- Created with Inkscape (http://www.inkscape.org/) -->

<svg
   version="1.1"
   id="svg2"
   width="533.33331"
   height="160"
   viewBox="0 0 533.33331 160"
   sodipodi:docname="edgenext logo_横版-白色.ai"
   xmlns:inkscape="http://www.inkscape.org/namespaces/inkscape"
   xmlns:sodipodi="http://sodipodi.sourceforge.net/DTD/sodipodi-0.dtd"
   xmlns="http://www.w3.org/2000/svg"
   xmlns:svg="http://www.w3.org/2000/svg">
  <defs
     id="defs6">
    <clipPath
       clipPathUnits="userSpaceOnUse"
       id="clipPath16">
      <path
         d="M 0,120 H 400 V 0 H 0 Z"
         id="path14" />
    </clipPath>
  </defs>
  <sodipodi:namedview
     id="namedview4"
     pagecolor="#ffffff"
     bordercolor="#000000"
     borderopacity="0.25"
     inkscape:showpageshadow="2"
     inkscape:pageopacity="0.0"
     inkscape:pagecheckerboard="0"
     inkscape:deskcolor="#d1d1d1" />
  <g
     id="g8"
     inkscape:groupmode="layer"
     inkscape:label="edgenext logo_横版-白色"
     transform="matrix(1.3333333,0,0,-1.3333333,0,160)">
    <g
       id="g10">
      <g
         id="g12"
         clip-path="url(#clipPath16)">
        <g
           id="g18"
           transform="translate(89.0767,42.0475)">
          <path
             d="M 0,0 -6.513,6.513 0,12.998 c 3.589,3.588 9.409,3.588 12.998,0 C 16.586,9.409 16.586,3.589 12.998,0 9.409,-3.589 3.589,-3.589 0,0 m -45.915,15.864 c 4.114,4.114 10.277,4.931 15.201,2.436 L -48.351,0.656 c -2.487,4.924 -1.678,11.094 2.436,15.208 m 64.711,2.932 c -6.79,6.791 -17.804,6.791 -24.602,0 L -27.345,-2.706 c -4.113,-4.114 -10.277,-4.931 -15.2,-2.436 l 17.637,17.636 3.253,3.253 c 1.604,1.605 1.604,4.202 0,5.799 -0.992,0.992 -2.057,1.867 -3.181,2.619 -8.293,5.594 -19.649,4.719 -26.987,-2.619 -7.337,-7.338 -8.213,-18.694 -2.618,-26.987 0.758,-1.123 1.626,-2.188 2.618,-3.18 0.992,-0.992 2.057,-1.868 3.18,-2.619 7.921,-5.339 18.629,-4.785 25.966,1.663 l 10.35,10.299 6.528,-6.528 c 6.791,-6.79 17.805,-6.79 24.603,0 6.79,6.798 6.79,17.812 -0.008,24.602"
             style="fill:#ffffff;fill-opacity:1;fill-rule:nonzero;stroke:none"
             id="path20" />
        </g>
        <g
           id="g22"
           transform="translate(61.7321,57.9116)">
          <path
             d="m 0,0 c 1.014,-1.014 1.823,-2.152 2.436,-3.37 l -17.644,-17.636 c -1.21,0.612 -2.348,1.422 -3.362,2.436 -1.014,1.014 -1.824,2.152 -2.436,3.362 L -3.362,2.436 C -2.152,1.823 -1.014,1.007 0,0"
             style="fill:#ffffff;fill-opacity:1;fill-rule:nonzero;stroke:none"
             id="path24" />
        </g>
        <g
           id="g26"
           transform="translate(82.5633,48.5609)">
          <path
             d="m 0,0 -5.813,-5.791 6.521,-6.528 5.805,5.806 z"
             style="fill:#ffffff;fill-opacity:1;fill-rule:nonzero;stroke:none"
             id="path28" />
        </g>
        <g
           id="g30"
           transform="translate(76.3271,65.5483)">
          <path
             d="m 0,0 c 3.829,4.296 9.095,7.294 15.033,8.242 -0.35,10.569 -9.023,19.03 -19.679,19.03 -9.176,0 -16.893,-6.28 -19.074,-14.778 C -13.924,12.363 -5.273,7.454 0,0"
             style="fill:#ffffff;fill-opacity:1;fill-rule:nonzero;stroke:none"
             id="path32" />
        </g>
        <g
           id="g34"
           transform="translate(327.7623,75.9228)">
          <path
             d="M 0,0 -3.36,-2.83 7.04,-15.2 h -42.07 v -4.4 H 7.06 L -3.36,-31.96 0,-34.79 14.65,-17.41 Z"
             style="fill:#ffffff;fill-opacity:1;fill-rule:nonzero;stroke:none"
             id="path36" />
        </g>
        <g
           id="g38"
           transform="translate(128.5423,60.7228)">
          <path
             d="M 0,0 C 0.95,5.81 5.62,10.22 11.03,10.22 16.44,10.22 21.1,5.81 22.06,0 Z m 11.02,14.01 c -7.77,0 -14.33,-6.55 -14.94,-14.9 -0.04,-0.39 -0.05,-0.82 -0.05,-1.31 0,-0.49 0.02,-0.92 0.05,-1.29 0.61,-8.37 7.17,-14.92 14.94,-14.92 4.56,0 10.46,2.7 13.36,8.72 l 0.42,0.88 -3.41,1.64 -0.43,-0.88 c -2.17,-4.52 -6.68,-6.58 -9.95,-6.58 -5.41,0 -10.07,4.41 -11.03,10.22 H 26 v 2.2 c 0,0.49 -0.02,0.92 -0.05,1.29 -0.59,8.38 -7.15,14.93 -14.93,14.93"
             style="fill:#ffffff;fill-opacity:1;fill-rule:nonzero;stroke:none"
             id="path40" />
        </g>
        <g
           id="g42"
           transform="translate(241.8923,70.9428)">
          <path
             d="M 0,0 C 5.41,0 10.07,-4.41 11.03,-10.22 H -11.02 C -10.07,-4.41 -5.4,0 0,0 m 0,3.79 c -7.77,0 -14.33,-6.55 -14.94,-14.9 -0.04,-0.39 -0.05,-0.82 -0.05,-1.31 0,-0.49 0.02,-0.92 0.05,-1.29 0.6,-8.37 7.17,-14.92 14.94,-14.92 4.56,0 10.46,2.7 13.36,8.72 l 0.42,0.88 -3.41,1.64 -0.43,-0.88 c -2.17,-4.52 -6.68,-6.58 -9.95,-6.58 -5.41,0 -10.07,4.41 -11.03,10.22 h 26.02 v 2.2 c 0,0.49 -0.02,0.92 -0.05,1.29 C 14.34,-2.76 7.77,3.79 0,3.79"
             style="fill:#ffffff;fill-opacity:1;fill-rule:nonzero;stroke:none"
             id="path44" />
        </g>
        <g
           id="g46"
           transform="translate(172.6123,70.9428)">
          <path
             d="m 0,0 c 6.18,0 11.2,-5.57 11.2,-12.42 0,-8.47 -6.68,-12.42 -11.2,-12.42 -6.18,0 -11.2,5.57 -11.2,12.42 C -11.2,-5.57 -6.18,0 0,0 M 11.2,-1.66 C 8.38,1.76 4.31,3.79 0,3.79 c -8.27,0 -14.99,-7.27 -14.99,-16.21 0,-8.94 6.72,-16.21 14.99,-16.21 3.46,0 7.18,1.53 9.94,4.09 0.45,0.42 0.87,0.85 1.26,1.32 v -5.41 h 4.4 v 50.69 h -4.4 z"
             style="fill:#ffffff;fill-opacity:1;fill-rule:nonzero;stroke:none"
             id="path48" />
        </g>
        <g
           id="g50"
           transform="translate(207.1823,46.1028)">
          <path
             d="m 0,0 c -6.18,0 -11.2,5.57 -11.2,12.42 0,6.85 5.03,12.42 11.2,12.42 6.17,0 11.2,-5.57 11.2,-12.42 C 11.2,3.95 4.51,0 0,0 M 11.35,23 C 8.53,26.54 4.41,28.63 0,28.63 c -8.27,0 -14.99,-7.27 -14.99,-16.21 0,-8.94 6.72,-16.21 14.99,-16.21 3.46,0 7.18,1.53 9.94,4.09 0.51,0.47 0.98,0.97 1.41,1.5 v -5.83 c 0,-5.5 -4.47,-9.98 -9.96,-9.98 -5.49,0 -9.95,4.48 -9.95,9.98 v 0.98 h -4.4 v -0.98 c 0,-7.93 6.44,-14.38 14.35,-14.38 7.91,0 14.35,6.45 14.35,14.38 v 32.66 h -4.4 V 23 Z"
             style="fill:#ffffff;fill-opacity:1;fill-rule:nonzero;stroke:none"
             id="path52" />
        </g>
        <g
           id="g54"
           transform="translate(370.5023,49.3028)">
          <path
             d="m 0,0 v -0.98 c 0,-1.05 -0.86,-1.91 -1.91,-1.91 -1.06,0 -1.91,0.86 -1.91,1.91 V 21.64 H 4.1 v 3.79 h -7.92 v 12.18 h -4.4 V 25.43 h -7.92 v -3.79 h 7.92 V -1.13 l 0.01,-0.98 h 0.1 c 0.53,-2.97 3.09,-5.18 6.2,-5.18 3.48,0 6.31,2.83 6.31,6.31 L 4.4,0 Z"
             style="fill:#ffffff;fill-opacity:1;fill-rule:nonzero;stroke:none"
             id="path56" />
        </g>
        <g
           id="g58"
           transform="translate(274.7923,74.7328)">
          <path
             d="M 0,0 C -3.59,0 -6.93,-1.43 -9.37,-3.94 V 0 h -4.4 v -32.42 h 4.4 v 19.26 c 0,5.17 4.21,9.37 9.37,9.37 5.16,0 9.37,-4.21 9.37,-9.37 v -19.25 h 3.79 v 19.25 C 13.16,-5.9 7.26,0 0,0"
             style="fill:#ffffff;fill-opacity:1;fill-rule:nonzero;stroke:none"
             id="path60" />
        </g>
        <g
           id="g62"
           transform="translate(341.4828,53.23)">
          <path
             d="M 0,0 2.902,2.438 10.858,-7.034 7.956,-9.472 Z"
             style="fill:#ffffff;fill-opacity:1;fill-rule:nonzero;stroke:none"
             id="path64" />
        </g>
        <g
           id="g66"
           transform="translate(341.4567,63.8203)">
          <path
             d="M 0,0 7.956,9.472 10.858,7.034 2.902,-2.438 Z"
             style="fill:#ffffff;fill-opacity:1;fill-rule:nonzero;stroke:none"
             id="path68" />
        </g>
        <g
           id="g70"
           transform="translate(307.0723,70.9428)">
          <path
             d="m 0,0 c 5.07,0 9.52,-3.79 10.82,-9.21 l 0.23,-0.95 3.68,0.89 -0.23,0.95 C 12.78,-1.19 6.82,3.79 -0.01,3.79 -8.28,3.79 -15,-3.48 -15,-12.42 c 0,-8.94 6.72,-16.21 14.99,-16.21 4.56,0 10.46,2.7 13.36,8.72 l 0.43,0.88 -3.41,1.64 -0.43,-0.88 C 7.77,-22.79 3.26,-24.85 0,-24.85 c -6.18,0 -11.2,5.57 -11.2,12.42 C -11.2,-5.58 -6.18,0 0,0"
             style="fill:#ffffff;fill-opacity:1;fill-rule:nonzero;stroke:none"
             id="path72" />
        </g>
      </g>
    </g>
  </g>
</svg>
